<svg width="214" height="245" viewBox="0 0 214 245" fill="none" xmlns="http://www.w3.org/2000/svg">
<g id="online-test/bro">
<g id="Picture">
<g id="Group" opacity="0.3">
<path id="Vector" d="M203.84 31.0984H154.791V103.843H203.84V31.0984Z" stroke="black" stroke-miterlimit="10"/>
<path id="Vector_2" d="M194.84 44.446H163.792V90.4957H194.84V44.446Z" stroke="black" stroke-miterlimit="10"/>
</g>
</g>
<g id="Test">
<path id="Vector_3" d="M143.301 22.946H13.4417V153.486H143.301V22.946Z" fill="#263238" stroke="#263238" stroke-miterlimit="10"/>
<path id="Vector_4" d="M140.84 19.7678H10.9797V150.307H140.84V19.7678Z" fill="white" stroke="#263238" stroke-linecap="round" stroke-linejoin="round"/>
<path id="Vector_5" d="M115.552 72.4483H122.01V65.1561H115.552V72.4483Z" fill="white" stroke="#263238" stroke-linecap="round" stroke-linejoin="round"/>
<path id="Vector_6" d="M124.007 72.4483H130.464V65.1561H124.007V72.4483Z" fill="white" stroke="#263238" stroke-linecap="round" stroke-linejoin="round"/>
<path id="Vector_7" d="M112.972 69.243H80.1667" stroke="#263238" stroke-linecap="round" stroke-linejoin="round"/>
<path id="Vector_8" d="M115.552 89.6624H122.01V82.3701H115.552V89.6624Z" fill="white" stroke="#263238" stroke-linecap="round" stroke-linejoin="round"/>
<path id="Vector_9" d="M124.007 89.6624H130.464V82.3701H124.007V89.6624Z" fill="white" stroke="#263238" stroke-linecap="round" stroke-linejoin="round"/>
<path id="Vector_10" d="M112.972 86.452H80.1667" stroke="#263238" stroke-linecap="round" stroke-linejoin="round"/>
<path id="Vector_11" d="M115.552 106.877H122.01V99.5844H115.552V106.877Z" fill="white" stroke="#263238" stroke-linecap="round" stroke-linejoin="round"/>
<path id="Vector_12" d="M124.007 106.877H130.464V99.5844H124.007V106.877Z" fill="white" stroke="#263238" stroke-linecap="round" stroke-linejoin="round"/>
<path id="Vector_13" d="M112.972 103.666H80.1667" stroke="#263238" stroke-linecap="round" stroke-linejoin="round"/>
<path id="Vector_14" d="M53.8188 72.4483H60.2761V65.1561H53.8188V72.4483Z" fill="white" stroke="#263238" stroke-linecap="round" stroke-linejoin="round"/>
<path id="Vector_15" d="M62.2761 72.4483H68.7334V65.1561H62.2761V72.4483Z" fill="white" stroke="#263238" stroke-linecap="round" stroke-linejoin="round"/>
<path id="Vector_16" d="M51.238 69.243H18.4326" stroke="#263238" stroke-linecap="round" stroke-linejoin="round"/>
<path id="Vector_17" d="M53.8188 89.6624H60.2761V82.3701H53.8188V89.6624Z" fill="white" stroke="#263238" stroke-linecap="round" stroke-linejoin="round"/>
<path id="Vector_18" d="M62.2761 89.6624H68.7334V82.3701H62.2761V89.6624Z" fill="white" stroke="#263238" stroke-linecap="round" stroke-linejoin="round"/>
<path id="Vector_19" d="M51.238 86.452H18.4326" stroke="#263238" stroke-linecap="round" stroke-linejoin="round"/>
<path id="Vector_20" d="M53.8188 106.877H60.2761V99.5844H53.8188V106.877Z" fill="white" stroke="#263238" stroke-linecap="round" stroke-linejoin="round"/>
<path id="Vector_21" d="M62.2761 106.877H68.7334V99.5844H62.2761V106.877Z" fill="white" stroke="#263238" stroke-linecap="round" stroke-linejoin="round"/>
<path id="Vector_22" d="M51.238 103.666H18.4326" stroke="#263238" stroke-linecap="round" stroke-linejoin="round"/>
<path id="Vector_23" d="M27.5849 131.948H20.4705V139.982H27.5849V131.948Z" fill="white" stroke="#263238" stroke-linecap="round" stroke-linejoin="round"/>
<path id="Vector_24" d="M56.6196 131.948H49.5051V139.982H56.6196V131.948Z" fill="white" stroke="#263238" stroke-linecap="round" stroke-linejoin="round"/>
<path id="Vector_25" d="M86.8041 131.948H79.6897V139.982H86.8041V131.948Z" fill="white" stroke="#263238" stroke-linecap="round" stroke-linejoin="round"/>
<path id="Vector_26" d="M64.395 67.5976L65.495 70.0928L70.8237 64.2795" stroke="#263238" stroke-width="2" stroke-linecap="round" stroke-linejoin="round"/>
<path id="Vector_27" d="M64.395 84.6182L65.495 87.1081L70.8237 81.2947" stroke="#263238" stroke-width="2" stroke-linecap="round" stroke-linejoin="round"/>
<path id="Vector_28" d="M55.2034 102.467L56.3082 104.957L61.6368 99.1435" stroke="#263238" stroke-width="2" stroke-linecap="round" stroke-linejoin="round"/>
<path id="Vector_29" d="M125.771 67.3933L126.871 69.8832L132.2 64.0698" stroke="#263238" stroke-width="2" stroke-linecap="round" stroke-linejoin="round"/>
<path id="Vector_30" d="M116.877 84.8223L117.977 87.3122L123.306 81.5043" stroke="#263238" stroke-width="2" stroke-linecap="round" stroke-linejoin="round"/>
<path id="Vector_31" d="M116.877 102.311L117.977 104.801L123.306 98.9928" stroke="#263238" stroke-width="2" stroke-linecap="round" stroke-linejoin="round"/>
<path id="Vector_32" d="M140.84 19.7678H10.9797V40.1603H140.84V19.7678Z" fill="#1971FF" stroke="#263238" stroke-linecap="round" stroke-linejoin="round"/>
<path id="Vector_33" d="M140.839 19.7678H135.949V150.307H140.839V19.7678Z" fill="#DBDBDB" stroke="#263238" stroke-linecap="round" stroke-linejoin="round"/>
<path id="Vector_34" d="M140.839 39.3858H135.949V64.5806H140.839V39.3858Z" fill="#949494" stroke="#263238" stroke-linecap="round" stroke-linejoin="round"/>
<path id="Vector_35" d="M140.84 19.7678H10.9797V29.6844H140.84V19.7678Z" fill="#DBDBDB" stroke="#263238" stroke-linecap="round" stroke-linejoin="round"/>
<path id="Vector_36" d="M68.7755 22.6559H17.5649V26.786H68.7755V22.6559Z" fill="white" stroke="#263238" stroke-linecap="round" stroke-linejoin="round"/>
<path id="Vector_37" d="M133.172 22.8491H137.667" stroke="#263238" stroke-linecap="round" stroke-linejoin="round"/>
<path id="Vector_38" d="M133.172 24.9951H137.667" stroke="#263238" stroke-linecap="round" stroke-linejoin="round"/>
<path id="Vector_39" d="M133.172 27.1461H137.667" stroke="#263238" stroke-linecap="round" stroke-linejoin="round"/>
<path id="Vector_40" d="M56.3425 48.4096C56.3425 47.1351 56.9378 46.4091 58.0235 46.4091C59.1093 46.4091 59.6997 47.1351 59.6997 48.4096V52.5398C59.6997 53.8089 59.1093 54.5349 58.0235 54.5349C56.9378 54.5349 56.3425 53.8089 56.3425 52.5398V48.4096ZM57.4521 52.6204C57.4521 53.1851 57.6711 53.4002 58.0235 53.4002C58.3759 53.4002 58.595 53.1851 58.595 52.6204V48.3182C58.595 47.7482 58.3759 47.5331 58.0235 47.5331C57.6711 47.5331 57.4521 47.7482 57.4521 48.3182V52.6204Z" fill="#263238"/>
<path id="Vector_41" d="M61.3983 48.6947V54.4436H60.4031V46.5006H61.7888L62.9269 51.2545V46.5006H63.9127V54.4436H62.7746L61.3983 48.6947Z" fill="#263238"/>
<path id="Vector_42" d="M64.7046 46.5006H65.8141V53.3088H67.6475V54.4436H64.7189L64.7046 46.5006Z" fill="#263238"/>
<path id="Vector_43" d="M68.1233 46.5006H69.2281V54.4436H68.1233V46.5006Z" fill="#263238"/>
<path id="Vector_44" d="M71.0098 48.6947V54.4436H70.0288V46.5006H71.4146L72.5527 51.2545V46.5006H73.5336V54.4436H72.4098L71.0098 48.6947Z" fill="#263238"/>
<path id="Vector_45" d="M75.419 49.8509H76.9381V50.9857H75.419V53.3088H77.3238V54.4436H74.3142V46.5006H77.3286V47.6353H75.4238L75.419 49.8509Z" fill="#263238"/>
<path id="Vector_46" d="M79.2515 46.5006H82.6658V47.6353H81.5087V54.4436H80.4039V47.6353H79.2515V46.5006Z" fill="#263238"/>
<path id="Vector_47" d="M84.2585 49.8509H85.7728V50.9857H84.2585V53.3088H86.1633V54.4436H83.1489V46.5006H86.1633V47.6353H84.2585V49.8509Z" fill="#263238"/>
<path id="Vector_48" d="M88.3337 46.4091C89.4099 46.4091 89.9623 47.1351 89.9623 48.4096V48.657H88.9194V48.329C88.9194 47.7589 88.7194 47.5438 88.367 47.5438C88.0146 47.5438 87.8146 47.7589 87.8146 48.329C87.8146 49.9423 89.9718 50.2703 89.9718 52.5398C89.9718 53.8089 89.4099 54.5349 88.3242 54.5349C87.2384 54.5349 86.6956 53.8089 86.6956 52.5398V52.0504H87.7432V52.6204C87.7432 53.1851 87.9622 53.3894 88.3146 53.3894C88.667 53.3894 88.8861 53.1851 88.8861 52.6204C88.8861 51.0071 86.7289 50.6791 86.7289 48.4096C86.6956 47.1351 87.2622 46.4091 88.3337 46.4091Z" fill="#263238"/>
<path id="Vector_49" d="M90.2854 46.5006H93.6998V47.6353H92.5474V54.4436H91.4569V47.6353H90.2997L90.2854 46.5006Z" fill="#263238"/>
<path id="Vector_50" d="M26.0085 130.012H24.8894L24.6989 128.571H23.3608L23.1703 130.012H22.137L23.2608 122.069H24.8799L26.0085 130.012ZM23.4846 127.49H24.5513L24.018 123.472L23.4846 127.49Z" fill="#263238"/>
<path id="Vector_51" d="M54.5753 123.881V124.161C54.5753 124.978 54.3563 125.5 53.861 125.774C54.4563 126.032 54.6849 126.635 54.6849 127.473V128.124C54.6849 129.35 54.1134 130.006 53.0086 130.006H51.2705V122.069H52.9372C54.0849 122.069 54.5753 122.671 54.5753 123.881ZM52.3753 123.187V125.285H52.8086C53.2182 125.285 53.4706 125.08 53.4706 124.446V124.005C53.4706 123.435 53.2991 123.187 52.9086 123.187H52.3753ZM52.3753 126.414V128.856H53.0086C53.3801 128.856 53.5801 128.662 53.5801 128.07V127.382C53.5801 126.64 53.3706 126.414 52.8705 126.414H52.3753Z" fill="#263238"/>
<path id="Vector_52" d="M85.0485 127.049V128.124C85.0485 129.399 84.4866 130.125 83.4008 130.125C82.3151 130.125 81.7532 129.399 81.7532 128.124V123.994C81.7532 122.725 82.3151 121.999 83.4008 121.999C84.4866 121.999 85.0485 122.725 85.0485 123.994V124.768H84.0056V123.881C84.0056 123.311 83.7818 123.096 83.4294 123.096C83.077 123.096 82.858 123.311 82.858 123.881V128.183C82.858 128.753 83.0818 128.958 83.4294 128.958C83.777 128.958 84.0056 128.753 84.0056 128.183V127.049H85.0485Z" fill="#263238"/>
<path id="Vector_53" d="M18.9326 117.836H103.339" stroke="#263238" stroke-linecap="round" stroke-linejoin="round"/>
</g>
<g id="Graphics">
<path id="Vector_54" opacity="0.3" d="M157.566 20.4075H166.885V9.88321L157.566 9.88321V20.4075Z" stroke="black" stroke-linecap="round" stroke-linejoin="round"/>
<path id="Vector_55" opacity="0.3" d="M169.771 20.4075H179.091V9.88321L169.771 9.88321V20.4075Z" stroke="black" stroke-linecap="round" stroke-linejoin="round"/>
<path id="Vector_56" opacity="0.3" d="M159.57 14.0456L161.16 17.6379L165.836 11.8246" stroke="black" stroke-width="2" stroke-linecap="round" stroke-linejoin="round"/>
<path id="Vector_57" opacity="0.3" d="M16.4925 174.813H25.8118V164.289H16.4925V174.813Z" stroke="black" stroke-linecap="round" stroke-linejoin="round"/>
<path id="Vector_58" opacity="0.3" d="M28.693 174.813H38.0122V164.289H28.693V174.813Z" stroke="black" stroke-linecap="round" stroke-linejoin="round"/>
<path id="Vector_59" opacity="0.3" d="M18.4875 168.452L20.0781 172.044L24.7543 166.231" stroke="black" stroke-width="2" stroke-linecap="round" stroke-linejoin="round"/>
<path id="Vector_60" opacity="0.3" d="M60.641 174.813H69.9602V164.289H60.641V174.813Z" stroke="black" stroke-linecap="round" stroke-linejoin="round"/>
<path id="Vector_61" opacity="0.3" d="M72.8458 174.813H82.165V164.289H72.8458V174.813Z" stroke="black" stroke-linecap="round" stroke-linejoin="round"/>
<path id="Vector_62" opacity="0.3" d="M62.6406 168.452L64.2311 172.044L68.9074 166.231" stroke="black" stroke-width="2" stroke-linecap="round" stroke-linejoin="round"/>
<g id="Group_2" opacity="0.3">
<path id="Vector_63" d="M75.0936 15.147C78.3546 14.5519 80.5709 11.0841 80.0439 7.40151C79.5169 3.71891 76.4462 1.21602 73.1852 1.81115C69.9243 2.40628 67.708 5.87407 68.235 9.55668C68.762 13.2393 71.8327 15.7422 75.0936 15.147Z" stroke="black" stroke-linecap="round" stroke-linejoin="round"/>
<path id="Vector_64" d="M75.8126 10.9212L74.1411 8.47968V4.63458" stroke="black" stroke-linecap="round" stroke-linejoin="round"/>
</g>
<g id="Group_3" opacity="0.3">
<path id="Vector_65" d="M185.782 138.035H184.896L184.744 136.895H183.668L183.515 138.035H182.711L183.606 131.738H184.887L185.782 138.035ZM183.782 136.04H184.625L184.201 132.851L183.782 136.04Z" fill="black"/>
<path id="Vector_66" d="M198.254 133.185V133.41C198.288 133.662 198.252 133.918 198.152 134.146C198.051 134.373 197.891 134.559 197.692 134.68C197.916 134.794 198.1 134.988 198.218 135.231C198.336 135.475 198.38 135.755 198.345 136.029V136.567C198.367 136.77 198.347 136.976 198.288 137.169C198.228 137.362 198.13 137.538 198.002 137.681C197.873 137.825 197.717 137.934 197.545 137.999C197.374 138.064 197.191 138.084 197.011 138.057H195.635V131.738H196.959C197.864 131.738 198.254 132.211 198.254 133.185ZM196.511 132.647V134.314H196.854C197.178 134.314 197.378 134.153 197.378 133.647V133.297C197.378 132.846 197.245 132.647 196.931 132.647H196.511ZM196.511 135.212V137.148H197.011C197.307 137.148 197.488 136.997 197.488 136.529V135.992C197.488 135.411 197.316 135.228 196.921 135.228L196.511 135.212Z" fill="black"/>
<path id="Vector_67" d="M210.882 135.712V136.545C210.882 137.557 210.439 138.132 209.577 138.132C208.715 138.132 208.268 137.557 208.268 136.545V133.27C208.268 132.259 208.715 131.684 209.577 131.684C210.439 131.684 210.882 132.259 210.882 133.27V133.884H210.053V133.184C210.053 132.733 209.877 132.566 209.601 132.566C209.325 132.566 209.125 132.733 209.125 133.184V136.589C209.125 137.04 209.301 137.202 209.601 137.202C209.901 137.202 210.053 137.04 210.053 136.589V135.712H210.882Z" fill="black"/>
<path id="Vector_68" d="M187.525 141.472H180.749V149.124H187.525V141.472Z" stroke="black" stroke-miterlimit="10"/>
<path id="Vector_69" d="M200.13 141.472H193.354V149.124H200.13V141.472Z" stroke="black" stroke-miterlimit="10"/>
<path id="Vector_70" d="M212.736 141.472H205.96V149.124H212.736V141.472Z" stroke="black" stroke-miterlimit="10"/>
</g>
</g>
<g id="Table">
<path id="Vector_71" d="M26.9048 230.124H12.5664" stroke="#263238" stroke-miterlimit="10"/>
<path id="Vector_72" d="M214 230.124H31.5769" stroke="#263238" stroke-miterlimit="10"/>
</g>
<g id="Character">
<path id="Vector_73" d="M158.904 229.941L161.971 177.347L164.228 152.34L158.038 144.537L154.933 141.988C154.933 141.988 150.561 146.29 147.461 147.242C144.361 148.194 141.38 149.157 141.38 149.157C141.38 149.157 130.804 171.614 129.951 181.805C129.099 191.996 127.694 229.748 127.694 229.748L128.87 229.941H158.904Z" fill="#9E9E9E" stroke="#263238" stroke-miterlimit="10"/>
<path id="Vector_74" d="M144.367 186.58C144.367 186.58 143.838 186.273 144.895 183.197" stroke="#263238" stroke-miterlimit="10"/>
<path id="Vector_75" d="M143.121 148.619C143.647 152.867 143.938 157.149 143.992 161.439C143.992 161.439 147.169 160.003 149.707 154.986C151.109 152.293 152.316 149.477 153.316 146.564L143.121 148.619Z" fill="#263238" stroke="#263238" stroke-miterlimit="10"/>
<path id="Vector_76" d="M158.903 229.941L161.66 182.654C158.956 184.214 153.617 186.79 147.727 186.903C140.669 187.037 131.931 180.847 131.931 180.847L129.964 181.718C129.964 181.745 129.964 181.778 129.964 181.805C129.117 192.022 127.707 229.747 127.707 229.747L128.883 229.941H158.903Z" fill="white" stroke="#263238" stroke-miterlimit="10"/>
<path id="Vector_77" d="M154.313 203.472C154.313 215.652 154.685 227.37 154.79 229.93H175.576C175.862 226.133 177.652 202.504 178.571 194.034C179.576 184.779 186.167 171.001 186.167 166.069C186.167 161.138 187.505 161.918 181.485 158.331C175.466 154.744 162.19 147 160.352 146.053C158.514 145.107 156.504 142.827 156.504 142.827C156.504 142.827 157.171 147.548 156.98 160.385C156.79 173.222 154.313 189.699 154.313 203.472Z" fill="#1971FF"/>
<g id="Group_4" opacity="0.2">
<path id="Vector_78" d="M156.506 142.875C156.754 145.109 156.897 147.357 156.934 149.608V143.332C156.668 143.058 156.506 142.875 156.506 142.875Z" fill="black"/>
<path id="Vector_79" d="M183.84 173.609V175.222C184.001 174.733 184.163 174.26 184.316 173.792V173.598H184.378C184.44 173.421 184.497 173.238 184.554 173.06H184.316V166.365H186.159C186.159 166.284 186.159 166.198 186.159 166.118C186.159 166.037 186.159 165.924 186.159 165.827H184.316V160.095C184.168 159.992 184.011 159.896 183.84 159.788V165.827H178.839V159.105H182.706L181.811 158.567H178.839V156.793L178.363 156.508V158.551H173.363V153.571L172.887 153.292V158.551H167.887V151.845H170.377L169.454 151.307H167.887V150.399L167.411 150.119V151.307H162.411V147.247C162.244 147.15 162.087 147.059 161.934 146.978V151.307H156.982C156.982 151.485 156.982 151.662 156.982 151.845H161.934V158.567H157.025C157.025 158.745 157.025 158.922 157.025 159.105H161.934V165.827H156.934V163.273C156.839 165.897 156.668 168.651 156.458 171.452V173.066H156.334L156.291 173.604H156.458V180.347H155.744L155.696 180.885H156.482V187.607H155.129L155.087 188.145H156.482V194.867H154.625L154.596 195.405H156.501V202.127H154.391C154.391 202.31 154.391 202.487 154.391 202.665H156.506V209.387H154.406C154.406 209.57 154.406 209.747 154.406 209.925H156.501V216.647H154.501C154.501 216.83 154.501 217.007 154.501 217.185H156.491V229.957H156.968V217.169H161.934V229.941H162.411V217.169H167.411V229.941H167.887V217.169H172.887V229.941H173.363V217.169H176.568C176.568 216.991 176.568 216.814 176.611 216.631H173.363V209.925H177.173C177.173 209.747 177.206 209.57 177.22 209.387H173.363V202.665H177.763C177.763 202.482 177.792 202.31 177.811 202.127H173.363V195.405H178.363V196.12L178.573 194.06C178.639 193.458 178.73 192.834 178.839 192.194V188.145H179.73L179.873 187.607H178.839V180.885H181.935C181.997 180.708 182.054 180.525 182.116 180.347H178.839V173.625L183.84 173.609ZM178.839 166.365H183.84V173.087H178.839V166.365ZM161.934 216.631H156.934V209.925H161.934V216.631ZM161.934 209.371H156.934V202.649H161.934V209.371ZM161.934 202.111H156.934V195.405H161.934V202.111ZM161.934 194.851H156.934V188.129H161.934V194.851ZM161.934 187.591H156.934V180.885H161.934V187.591ZM161.934 180.331H156.934V173.609H161.934V180.331ZM161.934 173.071H156.934V166.365H161.934V173.071ZM167.411 216.631H162.411V209.925H167.411V216.631ZM167.411 209.371H162.411V202.649H167.411V209.371ZM167.411 202.111H162.411V195.405H167.411V202.111ZM167.411 194.851H162.411V188.129H167.411V194.851ZM167.411 187.591H162.411V180.885H167.411V187.591ZM167.411 180.331H162.411V173.609H167.411V180.331ZM167.411 173.071H162.411V166.365H167.411V173.071ZM167.411 165.811H162.411V159.089H167.411V165.811ZM167.411 158.551H162.411V151.845H167.411V158.551ZM172.887 216.631H167.887V209.925H172.887V216.631ZM172.887 209.371H167.887V202.649H172.887V209.371ZM172.887 202.111H167.887V195.405H172.887V202.111ZM172.887 194.851H167.887V188.129H172.887V194.851ZM172.887 187.591H167.887V180.885H172.887V187.591ZM172.887 180.331H167.887V173.609H172.887V180.331ZM172.887 173.071H167.887V166.365H172.887V173.071ZM172.887 165.811H167.887V159.089H172.887V165.811ZM178.363 194.851H173.363V188.129H178.363V194.851ZM178.363 187.591H173.363V180.885H178.363V187.591ZM178.363 180.331H173.363V173.609H178.363V180.331ZM178.363 173.071H173.363V166.365H178.363V173.071ZM178.363 165.811H173.363V159.089H178.363V165.811Z" fill="black"/>
</g>
<path id="Vector_80" d="M154.313 203.472C154.313 215.652 154.685 227.37 154.79 229.93H175.576C175.862 226.133 177.652 202.504 178.571 194.034C179.576 184.779 186.167 171.001 186.167 166.069C186.167 161.138 187.505 161.918 181.485 158.331C175.466 154.744 162.19 147 160.352 146.053C158.514 145.107 156.504 142.827 156.504 142.827C156.504 142.827 157.171 147.548 156.98 160.385C156.79 173.222 154.313 189.699 154.313 203.472Z" stroke="#263238" stroke-miterlimit="10"/>
<path id="Vector_81" d="M156.502 142.875C156.502 142.875 157.169 147.597 156.978 160.433C156.94 163.66 156.745 167.145 156.502 170.737C157.074 169.85 158.917 167.016 159.359 166.855C159.859 166.666 162.536 169.5 164.707 169.877C166.879 170.253 167.717 170.253 165.379 167.419C163.04 164.585 162.045 156.282 161.198 150.049C161.036 148.715 160.777 147.398 160.421 146.113H160.364C158.507 145.145 156.502 142.875 156.502 142.875Z" fill="#263238" stroke="#263238" stroke-miterlimit="10"/>
<path id="Vector_82" d="M170.224 201.278C171.762 200.487 172.971 199.804 172.971 199.804L173.538 204.741C173.538 204.741 165.214 208.882 160.562 209.199C155.909 209.516 155.485 209.678 155.485 209.678L155.623 204.902" stroke="#263238" stroke-miterlimit="10"/>
<path id="Vector_83" d="M166.055 203.208C166.908 202.886 167.908 202.428 168.884 201.95" stroke="#263238" stroke-miterlimit="10"/>
<path id="Vector_84" d="M157.17 204.424C159.605 204.354 162.032 204.104 164.437 203.676" stroke="#263238" stroke-miterlimit="10"/>
<path id="Vector_85" d="M173.537 204.741L173.818 208.564" stroke="#263238" stroke-miterlimit="10"/>
<path id="Vector_86" d="M109.737 229.941H133.128C133.18 227.871 133.856 201.557 134.313 188.129C134.79 174.147 143.19 152.937 143.19 152.937C143.19 152.937 144.314 149.947 143.123 148.603C141.933 147.258 139.075 147.796 136.932 149.678C134.79 151.56 115.027 161.24 113.837 162.585C112.646 163.929 112.884 168.5 112.408 173.878C111.932 179.256 104.075 216.362 104.075 216.362C104.075 216.362 101.932 216.9 101.217 217.438C100.503 217.976 100.503 219.589 100.503 219.589C100.503 219.589 101.456 219.858 104.313 221.471C106.941 222.955 109.365 228.978 109.737 229.941Z" fill="#1971FF"/>
<path id="Vector_87" opacity="0.2" d="M140.026 159.089V161.837C140.188 161.342 140.345 160.864 140.503 160.401V159.089H140.95L141.136 158.551H140.503V151.845H143.503C143.536 151.679 143.574 151.496 143.598 151.308H140.503V147.93C140.345 147.957 140.188 147.984 140.026 148.027V151.308H135.026V150.942L134.55 151.216V151.308H134.388L133.436 151.845H134.55V158.567H129.55V153.943L129.074 154.195V158.551H124.074V156.836L123.597 157.089V158.551H120.831L119.821 159.089H123.597V165.827H118.597V159.751L118.121 160.009V165.827H113.121V164.472C112.853 166.431 112.694 168.407 112.645 170.388V173.077H112.473L112.431 173.614H112.645V180.347H111.364L111.264 180.885H112.645V187.607H109.973C109.94 187.785 109.902 187.968 109.869 188.145H112.645V194.867H108.526C108.488 195.05 108.454 195.228 108.416 195.405H112.645V202.127H107.645V199.17L107.169 201.493V202.1H107.045L106.935 202.638H107.169V209.387H105.54L105.426 209.925H107.169V216.647H103.126C102.64 216.794 102.163 216.973 101.697 217.185V220.11C101.84 220.175 101.997 220.25 102.173 220.342V217.185H107.169V224.714C107.335 224.983 107.492 225.252 107.645 225.526V217.19H112.645V229.963H113.121V217.169H118.121V229.941H118.597V217.169H123.597V229.941H124.074V217.169H129.074V229.941H129.55V217.169H133.46V216.631H129.55V209.925H133.66V209.387H129.55V202.665H133.864V202.127H129.55V195.405H134.079C134.079 195.228 134.079 195.045 134.079 194.867H129.55V188.145H134.312C134.312 187.968 134.312 187.79 134.336 187.607H129.55V180.885H134.55V184.859C134.674 183.714 134.831 182.536 135.026 181.342V180.885H135.102C135.131 180.708 135.164 180.53 135.193 180.347H135.026V173.625H136.622C136.664 173.448 136.712 173.27 136.755 173.087H135.026V166.365H138.598C138.655 166.188 138.707 166.005 138.76 165.827H135.026V159.105L140.026 159.089ZM135.026 151.845H140.026V158.567H135.026V151.845ZM112.645 216.647H107.645V209.925H112.645V216.647ZM112.645 209.387H107.645V202.665H112.645V209.387ZM118.121 216.647H113.121V209.925H118.121V216.647ZM118.121 209.387H113.121V202.665H118.121V209.387ZM118.121 202.127H113.121V195.405H118.121V202.127ZM118.121 194.867H113.121V188.145H118.121V194.867ZM118.121 187.607H113.121V180.885H118.121V187.607ZM118.121 180.347H113.121V173.625H118.121V180.347ZM118.121 173.087H113.121V166.365H118.121V173.087ZM123.597 216.647H118.597V209.925H123.597V216.647ZM123.597 209.387H118.597V202.665H123.597V209.387ZM123.597 202.127H118.597V195.405H123.597V202.127ZM123.597 194.867H118.597V188.145H123.597V194.867ZM123.597 187.607H118.597V180.885H123.597V187.607ZM123.597 180.347H118.597V173.625H123.597V180.347ZM123.597 173.087H118.597V166.365H123.597V173.087ZM129.074 216.647H124.074V209.925H129.074V216.647ZM129.074 209.387H124.074V202.665H129.074V209.387ZM129.074 202.127H124.074V195.405H129.074V202.127ZM129.074 194.867H124.074V188.145H129.074V194.867ZM129.074 187.607H124.074V180.885H129.074V187.607ZM129.074 180.347H124.074V173.625H129.074V180.347ZM129.074 173.087H124.074V166.365H129.074V173.087ZM129.074 165.827H124.074V159.105H129.074V165.827ZM134.55 180.347H129.55V173.625H134.55V180.347ZM134.55 173.087H129.55V166.365H134.55V173.087ZM134.55 165.827H129.55V159.105H134.55V165.827Z" fill="black"/>
<path id="Vector_88" d="M109.737 229.941H133.128C133.18 227.871 133.856 201.557 134.313 188.129C134.79 174.147 143.19 152.937 143.19 152.937C143.19 152.937 144.314 149.947 143.123 148.603C141.933 147.258 139.075 147.796 136.932 149.678C134.79 151.56 115.027 161.24 113.837 162.585C112.646 163.929 112.884 168.5 112.408 173.878C111.932 179.256 104.075 216.362 104.075 216.362C104.075 216.362 101.932 216.9 101.217 217.438C100.503 217.976 100.503 219.589 100.503 219.589C100.503 219.589 101.456 219.858 104.313 221.471C106.941 222.955 109.365 228.978 109.737 229.941Z" stroke="#263238" stroke-miterlimit="10"/>
<path id="Vector_89" d="M100.503 219.605C100.503 219.605 101.456 219.874 104.313 221.487C107.17 223.1 109.789 230.091 109.789 230.091H114.403C114.694 229.113 115.403 225.553 112.17 221.218C108.36 216.109 104.075 216.378 104.075 216.378C104.075 216.378 101.932 216.916 101.217 217.454C100.503 217.991 100.503 219.605 100.503 219.605Z" fill="#263238" stroke="#263238" stroke-miterlimit="10"/>
<path id="Vector_90" d="M140.247 147.963C139.224 151.023 136.8 157.944 134.79 161.24C132.171 165.542 127.409 169.038 129.076 170.651C130.742 172.265 135.504 167.156 135.504 167.156C135.504 167.156 136.695 170.92 136.933 171.996C136.946 172.045 136.967 172.09 136.995 172.13C138.714 165.597 140.781 159.188 143.185 152.937C143.185 152.937 144.309 149.947 143.119 148.603C142.505 147.903 141.457 147.721 140.247 147.963Z" fill="#263238" stroke="#263238" stroke-miterlimit="10"/>
<path id="Vector_91" d="M122.856 173.921C122.992 172.927 123.081 171.925 123.122 170.92" stroke="#263238" stroke-miterlimit="10"/>
<path id="Vector_92" d="M119.074 230.613C119.074 230.613 119.789 213.404 119.789 203.456C119.789 196.287 121.517 184.23 122.489 176.846" stroke="#263238" stroke-miterlimit="10"/>
<path id="Vector_93" d="M120.265 199.707C120.265 199.707 124.075 201.052 125.979 201.321L131.694 202.127L131.26 208.22C131.26 208.22 130.98 208.043 126.694 206.429C122.408 204.816 119.789 203.472 119.789 203.472" stroke="#263238" stroke-miterlimit="10"/>
<path id="Vector_94" d="M131.261 208.204C131.261 208.204 130.98 220.143 130.98 221.756C130.98 223.369 126.694 222.294 126.694 222.294" stroke="#263238" stroke-miterlimit="10"/>
<path id="Vector_95" d="M134.681 142.284C134.681 142.284 139.171 149.576 143.19 152.937C147.209 156.298 150.638 151.593 153.319 146.548C156 141.504 157.786 137.804 159.124 133.432C160.462 129.06 159.124 121.832 153.767 116.116C148.409 110.399 135.895 101.988 132.771 106.36C129.647 110.732 126.666 120.342 128.747 128.554C129.99 133.491 131.999 138.14 134.681 142.284Z" fill="#9E9E9E" stroke="#263238" stroke-miterlimit="10"/>
<path id="Vector_96" d="M132.79 126.596C134.484 126.023 136.291 126.023 137.985 126.596" stroke="#263238" stroke-width="2" stroke-miterlimit="10" stroke-linecap="round"/>
<path id="Vector_97" d="M136.632 131.098C136.775 131.969 136.594 132.738 136.227 132.813C135.861 132.889 135.456 132.243 135.313 131.367C135.17 130.49 135.351 129.726 135.718 129.651C136.084 129.576 136.489 130.221 136.632 131.098Z" fill="#263238"/>
<path id="Vector_98" d="M149.881 131.329C150.019 132.2 149.838 132.942 149.476 133.045C149.114 133.147 148.705 132.475 148.562 131.598C148.419 130.721 148.6 129.958 148.967 129.882C149.333 129.807 149.738 130.452 149.881 131.329Z" fill="#263238"/>
<path id="Vector_99" d="M140.065 143.187C141.786 143.857 143.606 144.142 145.423 144.026C148.551 143.859 151.232 141.337 151.232 141.337" stroke="#263238" stroke-miterlimit="10"/>
<path id="Vector_100" d="M133.232 110.076C133.232 110.076 139.846 127.113 140.675 127.581C141.503 128.049 143.156 122.445 143.156 122.445C143.156 122.445 145.427 127.108 148.123 128.511C150.818 129.915 151.637 127.581 151.637 127.581C152.987 128.44 154.298 129.375 155.566 130.383L156.599 131.313L157.632 135.513C157.632 135.513 154.532 146.951 155.566 148.355C156.599 149.759 162.385 147.887 162.385 147.887C162.385 147.887 160.956 150.221 162.799 150.221C164.642 150.221 167.966 150.689 172.718 143.451C177.471 136.212 177.885 124.548 177.885 124.548C177.885 124.548 180.157 127.344 180.366 123.843C180.576 120.342 177.68 114.507 177.68 114.507C177.68 114.507 182.223 119.643 181.814 114.276C181.404 108.909 178.714 102.838 177.68 101.44C176.647 100.041 170.442 96.0618 170.442 96.0618C170.442 96.0618 172.923 95.5939 171.066 92.3242C169.209 89.0546 162.385 88.1242 159.904 88.1242C157.423 88.1242 152.256 89.0599 152.256 89.0599C152.256 89.0599 155.566 81.8215 152.051 81.3536C148.537 80.8857 142.337 88.5921 142.337 88.5921C142.337 88.5921 136.146 82.9884 134.275 84.1554C132.403 85.3224 133.656 86.9572 133.656 86.9572C133.656 86.9572 125.598 87.6563 123.322 91.6251C121.046 95.5939 123.736 97.9278 123.736 97.9278C123.736 97.9278 109.269 109.13 111.541 113.33C113.812 117.53 117.95 113.566 117.95 113.566C117.95 113.566 112.16 130.372 112.988 131.539C113.817 132.706 117.75 131.071 117.75 131.071C117.75 131.071 117.546 144.607 120.646 146.01C123.746 147.414 124.365 144.843 124.365 144.843C124.365 144.843 126.017 146.709 129.741 146.941C133.465 147.172 134.698 142.273 134.698 142.273C134.698 142.273 130.565 131.302 130.775 122.203C130.984 113.104 133.232 110.076 133.232 110.076Z" fill="#263238" stroke="#263238" stroke-miterlimit="10"/>
<g id="Vector_101">
<path d="M141.556 129.732C141.556 129.732 140.065 138.476 141.256 140.326C142.446 142.176 146.618 140.326 146.913 139.321" fill="#9E9E9E"/>
<path d="M141.556 129.732C141.556 129.732 140.065 138.476 141.256 140.326C142.446 142.176 146.618 140.326 146.913 139.321" stroke="#263238" stroke-miterlimit="10"/>
</g>
<path id="Vector_102" d="M135.374 135.115C138.622 135.115 141.255 132.931 141.255 130.238C141.255 127.544 138.622 125.36 135.374 125.36C132.126 125.36 129.493 127.544 129.493 130.238C129.493 132.931 132.126 135.115 135.374 135.115Z" stroke="#263238" stroke-miterlimit="10"/>
<path id="Vector_103" d="M149.519 134.781C152.767 134.781 155.4 132.598 155.4 129.904C155.4 127.21 152.767 125.026 149.519 125.026C146.271 125.026 143.638 127.21 143.638 129.904C143.638 132.598 146.271 134.781 149.519 134.781Z" stroke="#263238" stroke-miterlimit="10"/>
<path id="Vector_104" d="M141.556 129.732C141.556 129.732 142.746 128.726 143.637 129.904" stroke="#263238" stroke-miterlimit="10"/>
<path id="Vector_105" d="M92.5547 222.783C92.5547 222.783 100.031 220.401 102.331 219.971C104.631 219.54 109.236 224.3 110.003 226.897C110.769 229.495 109.788 230.075 109.788 230.075L94.469 229.5L92.5547 222.783Z" fill="#9E9E9E" stroke="#263238" stroke-miterlimit="10"/>
<path id="Vector_106" d="M95.2644 221.944C95.2644 221.944 100.907 224.332 102.317 225.289C103.726 226.246 103.303 228.156 102.46 229.107C101.443 230.067 100.23 230.725 98.9311 231.022C97.6163 231.106 96.2982 231.106 94.9834 231.022C93.2929 230.861 91.7405 231.183 90.3309 231.183C88.9214 231.183 84.6879 230.705 84.6879 230.705L83.4165 229.747C83.4165 229.747 81.0355 230.543 79.1878 231.361C77.3402 232.178 77.9164 230.403 79.3259 229.129C80.7355 227.854 84.2641 224.671 84.8308 224.353C85.3975 224.036 92.5881 221.665 92.5881 221.665L95.2644 221.944Z" fill="#9E9E9E" stroke="#263238" stroke-miterlimit="10"/>
<g id="Vector_107">
<path d="M97.379 222.579C97.379 222.579 93.7075 220.67 92.7218 220.67C91.736 220.67 84.6835 223.359 83.6978 224.171C82.712 224.983 81.7215 232.614 82.4263 233.092C83.1311 233.571 83.6978 232.135 83.8549 231.183C84.012 230.231 85.974 225.128 85.974 225.128L84.5454 233.254C84.5454 233.254 85.1121 234.523 85.674 233.41C86.2359 232.296 89.7645 224.649 90.0455 224.171C90.4151 223.727 90.8441 223.351 91.317 223.057C91.317 223.057 90.6122 226.564 90.0455 229.909C89.4788 233.254 89.9074 234.211 90.755 234.367C91.6027 234.523 92.0217 232.296 92.4456 231.183C92.8694 230.07 94.7027 223.692 94.7027 223.692" fill="#9E9E9E"/>
<path d="M97.379 222.579C97.379 222.579 93.7075 220.67 92.7218 220.67C91.736 220.67 84.6835 223.359 83.6978 224.171C82.712 224.983 81.7215 232.614 82.4263 233.092C83.1311 233.571 83.6978 232.135 83.8549 231.183C84.012 230.231 85.974 225.128 85.974 225.128L84.5454 233.254C84.5454 233.254 85.1121 234.523 85.674 233.41C86.2359 232.296 89.7645 224.649 90.0455 224.171C90.4151 223.727 90.8441 223.351 91.317 223.057C91.317 223.057 90.6122 226.564 90.0455 229.909C89.4788 233.254 89.9074 234.211 90.755 234.367C91.6027 234.523 92.0217 232.296 92.4456 231.183C92.8694 230.07 94.7027 223.692 94.7027 223.692" stroke="#263238" stroke-miterlimit="10"/>
</g>
<path id="Vector_108" d="M101.456 225.768C101.456 225.768 97.2271 230.704 96.6604 231.818C96.0937 232.931 96.0985 233.092 97.6509 233.092C99.2033 233.092 103.999 229.586 104.418 229.107C104.837 228.629 104.703 227.198 103.713 226.241C103.398 225.964 103.028 225.777 102.635 225.694C102.243 225.612 101.838 225.637 101.456 225.768Z" fill="#9E9E9E" stroke="#263238" stroke-miterlimit="10"/>
<path id="Vector_109" d="M127.865 225.219C127.865 225.219 122.222 227.279 120.836 228.446C119.45 229.613 117.45 230.898 117.883 231.291C118.317 231.683 119.707 231.291 120.141 230.898C120.574 230.506 122.569 230.113 122.569 230.113C122.569 230.113 124.912 228.543 126.736 227.274C128.56 226.005 129.946 224.628 127.865 225.219Z" fill="#9E9E9E" stroke="#263238" stroke-miterlimit="10"/>
<path id="Vector_110" d="M159.012 214.431C159.012 214.431 143.298 217.658 137.612 219.911C131.926 222.165 129.664 223.735 126.821 226.004C123.978 228.274 118.216 232.56 119.073 233.313C119.931 234.066 122.916 231.425 123.421 230.86C123.926 230.296 127.597 228.596 127.597 228.596L130.055 227.177C130.055 227.177 126.354 232.323 125.021 233.63C123.688 234.937 124.588 235.754 125.593 235.378C126.597 235.001 128.493 232.748 128.493 232.748L134.602 228.209C134.602 228.209 132.093 232.178 130.921 233.307C129.75 234.437 132.259 235.388 132.764 234.442C133.269 233.496 135.774 231.043 135.774 231.043C135.774 231.043 139.95 228.591 140.955 227.645C141.96 226.698 144.464 224.058 144.464 224.058L163.189 225.757C163.189 225.757 164.36 225.004 163.693 220.659C163.027 216.314 159.012 214.431 159.012 214.431Z" fill="#9E9E9E" stroke="#263238" stroke-miterlimit="10"/>
<path id="Vector_111" d="M171.719 181.014L180.915 206.698L166.033 212.549L170.214 226.333C170.214 226.333 180.9 226.365 189.263 225.795C197.625 225.225 203.491 219.53 202.153 212.738C200.815 205.946 195.801 196.12 191.786 184.413C187.772 172.706 189.015 165.725 187.177 162.138C185.339 158.551 180.153 157.605 180.153 157.605L177.296 157.067" fill="#1971FF"/>
<path id="Vector_112" opacity="0.2" d="M200.743 219.879V217.19H201.986C202.038 217.013 202.081 216.835 202.119 216.653H200.743V209.925H201.457C201.405 209.753 201.347 209.57 201.295 209.387H200.743V207.747C200.59 207.301 200.433 206.844 200.266 206.386V209.387H195.266V202.665H198.857C198.785 202.488 198.719 202.31 198.647 202.127H195.266V195.405H195.933C195.857 195.228 195.785 195.05 195.714 194.867H195.266V193.743C195.109 193.345 194.947 192.947 194.79 192.544V194.867H189.79V188.145H193.123C193.057 187.968 192.99 187.79 192.928 187.607H189.79V180.885H190.681C190.628 180.708 190.581 180.525 190.533 180.347H189.79V177.282C189.609 176.432 189.452 175.62 189.314 174.841V180.347H184.314V173.625H189.114L189.028 173.087H184.314V166.365H188.223L188.152 165.827H184.314V159.234C183.896 158.981 183.467 158.753 183.028 158.551H178.837V157.347L178.361 157.25V158.551H176.956L176.828 159.089H178.361V165.827H175.266L175.142 166.365H178.366V173.087H173.571L173.442 173.625H178.361V180.347H173.361V173.969L172.885 176.007V180.31H171.875L171.752 180.847H172.885V184.252L173.361 185.58V180.885H178.361V187.607H174.075L174.266 188.145H178.361V194.867H176.695L176.89 195.405H178.385V199.584L178.861 200.912V195.405H183.838V202.127H179.271L179.466 202.665H183.838V209.387H178.837V207.527L178.361 207.715V209.387H174.104L172.733 209.925H172.885V216.647H167.885V211.807L167.409 211.995V216.62H167.271L167.885 218.642V217.158H172.885V226.3H173.361V217.158H178.361V226.23H178.837V217.169H183.838V226.058H184.314V217.169H189.314V225.773L189.79 225.73V217.169H194.79V224.547L195.266 224.343V217.169H200.266V220.546C200.433 220.326 200.595 220.105 200.743 219.879ZM178.361 216.653H173.361V209.925H178.361V216.653ZM183.838 216.653H178.837V209.925H183.838V216.653ZM183.838 194.873H178.837V188.15H183.838V194.873ZM183.838 187.613H178.837V180.885H183.838V187.613ZM183.838 180.353H178.837V173.631H183.838V180.353ZM183.838 173.093H178.837V166.365H183.838V173.093ZM183.838 165.833H178.837V159.111H183.838V165.833ZM189.314 216.653H184.314V209.925H189.314V216.653ZM189.314 209.393H184.314V202.67H189.314V209.393ZM189.314 202.133H184.314V195.405H189.314V202.133ZM189.314 194.873H184.314V188.15H189.314V194.873ZM189.314 187.613H184.314V180.885H189.314V187.613ZM194.79 216.653H189.79V209.925H194.79V216.653ZM194.79 209.393H189.79V202.67H194.79V209.393ZM194.79 202.133H189.79V195.405H194.79V202.133ZM195.266 216.653V209.925H200.266V216.647L195.266 216.653Z" fill="#263238"/>
<path id="Vector_113" d="M171.719 181.014L180.915 206.698L166.033 212.549L170.214 226.333C170.214 226.333 180.9 226.365 189.263 225.795C197.625 225.225 203.491 219.53 202.153 212.738C200.815 205.946 195.801 196.12 191.786 184.413C187.772 172.706 189.015 165.725 187.177 162.138C185.339 158.551 180.153 157.605 180.153 157.605L177.296 157.067" stroke="#263238" stroke-miterlimit="10"/>
<path id="Vector_114" d="M189.867 204.085C186.833 204.719 183.842 205.591 180.915 206.693C180.915 206.693 187.267 201.971 190.777 201.595" stroke="#263238" stroke-miterlimit="10"/>
<path id="Vector_115" d="M194.123 203.859C193.464 203.752 192.797 203.727 192.133 203.784" stroke="#263238" stroke-miterlimit="10"/>
<path id="Vector_116" d="M170.382 210.463C170.382 210.463 173.763 214.114 174.763 216.943C175.763 219.772 175.396 227.457 174.729 228.209C174.063 228.962 161.62 228.871 159.572 225.983C159.039 225.23 162.691 223.493 160.853 219.336C159.015 215.179 158.177 214.808 158.177 214.808C158.177 214.808 156.672 213.862 159.515 211.786C162.358 209.71 168.877 208.204 170.382 210.463Z" fill="#263238" stroke="#263238" stroke-miterlimit="10"/>
</g>
<g id="Drink">
<path id="Vector_117" d="M200.026 239.578H187.683L186.14 212.022H201.569L200.026 239.578Z" fill="#263238" stroke="#263238" stroke-linejoin="round"/>
<path id="Vector_118" d="M202.256 212.065H185.46V216.077H202.256V212.065Z" fill="white" stroke="#263238" stroke-linejoin="round"/>
<path id="Vector_119" d="M202.256 212.216H185.46L187.136 209.839H200.575L202.256 212.216Z" fill="white" stroke="#263238" stroke-linejoin="round"/>
<path id="Vector_120" d="M200.479 231.495L201.093 220.519H186.617L187.231 231.495H200.479Z" fill="white" stroke="#263238" stroke-linejoin="round"/>
</g>
<g id="Device">
<path id="Vector_121" d="M128.894 241.412L144.103 236.873V239.196L128.894 244.009V241.412Z" fill="#263238" stroke="#263238" stroke-linejoin="round"/>
<path id="Vector_122" d="M144.105 236.873H64.5842L49.2124 241.412H128.895L144.105 236.873Z" fill="white" stroke="#263238" stroke-linejoin="round"/>
<path id="Vector_123" d="M128.895 189.516H49.2126V244.009H128.895V189.516Z" fill="white" stroke="#263238" stroke-linejoin="round"/>
<path id="Vector_124" d="M128.895 197.4C111.561 198.33 101.237 216.373 85.8984 228.462C71.9171 239.486 54.6501 241.369 49.231 241.664V244.009H128.895V197.4Z" fill="#263238" stroke="#263238" stroke-linejoin="round"/>
<path id="Vector_125" d="M128.895 241.412H49.2124V244.009H128.895V241.412Z" fill="white" stroke="#263238" stroke-miterlimit="10"/>
</g>
<g id="Plant">
<path id="Vector_126" d="M25.6232 223.434C25.6232 223.434 18.985 211.442 24.3136 204.693C29.6423 197.944 38.252 201.192 40.0282 207.441C41.8045 213.69 38.0377 224.187 38.0377 224.187L25.6232 223.434Z" fill="#1971FF" stroke="#263238" stroke-linecap="round" stroke-linejoin="round"/>
<g id="Vector_127">
<path d="M25.8423 209.688C24.7375 209.688 20.5326 207.941 19.204 205.693C17.8754 203.445 17.6469 198.444 21.4184 198.444C25.1899 198.444 26.5089 205.94 26.5089 205.94L26.728 208.688" fill="#1971FF"/>
<path d="M25.8423 209.688C24.7375 209.688 20.5326 207.941 19.204 205.693C17.8754 203.445 17.6469 198.444 21.4184 198.444C25.1899 198.444 26.5089 205.94 26.5089 205.94L26.728 208.688" stroke="#263238" stroke-linecap="round" stroke-linejoin="round"/>
</g>
<g id="Vector_128">
<path d="M29.2474 205.021C28.2569 204.483 25.1854 200.783 24.8854 198.099C24.5854 195.416 26.3664 190.834 29.7331 192.722C33.0999 194.609 31.3236 201.998 31.3236 201.998L30.4331 204.569" fill="#1971FF"/>
<path d="M29.2474 205.021C28.2569 204.483 25.1854 200.783 24.8854 198.099C24.5854 195.416 26.3664 190.834 29.7331 192.722C33.0999 194.609 31.3236 201.998 31.3236 201.998L30.4331 204.569" stroke="#263238" stroke-linecap="round" stroke-linejoin="round"/>
</g>
<g id="Vector_129">
<path d="M33.2661 206.279C32.7137 205.204 31.9708 200.208 33.0375 197.788C34.1042 195.368 37.8376 192.668 39.7043 196.357C41.571 200.046 36.4709 205.069 36.4709 205.069L34.4661 206.65" fill="#1971FF"/>
<path d="M33.2661 206.279C32.7137 205.204 31.9708 200.208 33.0375 197.788C34.1042 195.368 37.8376 192.668 39.7043 196.357C41.571 200.046 36.4709 205.069 36.4709 205.069L34.4661 206.65" stroke="#263238" stroke-linecap="round" stroke-linejoin="round"/>
</g>
<g id="Vector_130">
<path d="M34.584 215.238C34.403 214.001 35.2316 209.032 36.965 207.172C38.6983 205.311 43.0365 204.241 43.6603 208.43C44.2842 212.619 37.9459 215.346 37.9459 215.346L35.5649 216.045" fill="#1971FF"/>
<path d="M34.584 215.238C34.403 214.001 35.2316 209.032 36.965 207.172C38.6983 205.311 43.0365 204.241 43.6603 208.43C44.2842 212.619 37.9459 215.346 37.9459 215.346L35.5649 216.045" stroke="#263238" stroke-linecap="round" stroke-linejoin="round"/>
</g>
<path id="Vector_131" d="M19.6909 202.676L20.4386 204.004" stroke="white" stroke-linecap="round" stroke-linejoin="round"/>
<path id="Vector_132" d="M21.8284 205.935L22.9998 207.016" stroke="white" stroke-linecap="round" stroke-linejoin="round"/>
<path id="Vector_133" d="M20.5471 200.143L21.7186 202.074" stroke="white" stroke-linecap="round" stroke-linejoin="round"/>
<path id="Vector_134" d="M23.323 203.644L24.604 206.295" stroke="white" stroke-linecap="round" stroke-linejoin="round"/>
<path id="Vector_135" d="M26.3088 197.25L26.7374 198.696" stroke="white" stroke-linecap="round" stroke-linejoin="round"/>
<path id="Vector_136" d="M27.8052 201.348L28.5528 202.558" stroke="white" stroke-linecap="round" stroke-linejoin="round"/>
<path id="Vector_137" d="M27.4851 194.357L28.447 196.766" stroke="white" stroke-linecap="round" stroke-linejoin="round"/>
<path id="Vector_138" d="M23.7471 211.361L24.0709 213.528" stroke="white" stroke-linecap="round" stroke-linejoin="round"/>
<path id="Vector_139" d="M24.7083 215.577L25.1368 217.389" stroke="white" stroke-linecap="round" stroke-linejoin="round"/>
<path id="Vector_140" d="M25.7751 211.479L26.2037 213.889" stroke="white" stroke-linecap="round" stroke-linejoin="round"/>
<path id="Vector_141" d="M27.1675 215.577L27.4865 217.389" stroke="white" stroke-linecap="round" stroke-linejoin="round"/>
<path id="Vector_142" d="M27.9146 208.344L28.5527 211.721" stroke="white" stroke-linecap="round" stroke-linejoin="round"/>
<path id="Vector_143" d="M29.4099 214.975L29.5147 216.545" stroke="white" stroke-linecap="round" stroke-linejoin="round"/>
<path id="Vector_144" d="M30.5801 207.258L31.1134 210.393" stroke="white" stroke-linecap="round" stroke-linejoin="round"/>
<path id="Vector_145" d="M31.1145 213.652L31.3288 216.906" stroke="white" stroke-linecap="round" stroke-linejoin="round"/>
<path id="Vector_146" d="M33.6804 208.462V211.119" stroke="white" stroke-linecap="round" stroke-linejoin="round"/>
<path id="Vector_147" d="M33.3569 214.496L33.4665 216.545" stroke="white" stroke-linecap="round" stroke-linejoin="round"/>
<path id="Vector_148" d="M36.3478 195.922L35.8145 197.374" stroke="white" stroke-linecap="round" stroke-linejoin="round"/>
<path id="Vector_149" d="M35.599 199.057L35.0657 201.111" stroke="white" stroke-linecap="round" stroke-linejoin="round"/>
<path id="Vector_150" d="M38.6949 198.696L37.8425 200.627" stroke="white" stroke-linecap="round" stroke-linejoin="round"/>
<path id="Vector_151" d="M36.0276 202.799L35.0657 204.004" stroke="white" stroke-linecap="round" stroke-linejoin="round"/>
<path id="Vector_152" d="M33.9995 198.578L33.6804 200.143" stroke="white" stroke-linecap="round" stroke-linejoin="round"/>
<path id="Vector_153" d="M38.6949 207.258L37.5234 209.43" stroke="white" stroke-linecap="round" stroke-linejoin="round"/>
<path id="Vector_154" d="M36.7764 210.753L36.1335 212.684" stroke="white" stroke-linecap="round" stroke-linejoin="round"/>
<path id="Vector_155" d="M37.7375 213.652L39.6566 212.442" stroke="white" stroke-linecap="round" stroke-linejoin="round"/>
<path id="Vector_156" d="M40.8325 207.258L39.8706 209.07" stroke="white" stroke-linecap="round" stroke-linejoin="round"/>
<path id="Vector_157" d="M41.7944 209.307L40.5134 210.393" stroke="white" stroke-linecap="round" stroke-linejoin="round"/>
<path id="Vector_158" d="M40.414 219.25H22.2612V239.75H40.414V219.25Z" fill="#263238" stroke="#263238" stroke-linecap="round" stroke-linejoin="round"/>
</g>
</g>
</svg>
