<svg width="136" height="93" viewBox="0 0 136 93" fill="none" xmlns="http://www.w3.org/2000/svg">
<g id="Hello">
<path id="Vector" d="M86.5458 76.3463L79.6533 76.8464L79.7001 77.4911L86.5926 76.991L86.5458 76.3463Z" fill="#407BFF"/>
<path id="Vector_2" d="M92.7366 75.8995L89.3516 76.1451L89.3983 76.7899L92.7833 76.5443L92.7366 75.8995Z" fill="#407BFF"/>
<path id="Vector_3" d="M122.476 0.0200765L8.3459 8.2489C5.97054 8.43421 3.76409 9.54879 2.20537 11.3508C0.646652 13.1527 -0.138572 15.4967 0.0201096 17.874L3.89858 71.6684C4.08224 74.0473 5.19794 76.2574 7.00293 77.8179C8.80791 79.3783 11.1561 80.1628 13.5366 80.0006L20.0007 79.5352C20.4703 79.5014 20.9342 79.6553 21.2905 79.9631C21.6468 80.2709 21.8664 80.7075 21.9012 81.1771L22.6251 91.1447C22.6369 91.3378 22.7062 91.5229 22.824 91.6763C22.9419 91.8296 23.1028 91.9442 23.2863 92.0054C23.4698 92.0666 23.6674 92.0715 23.8536 92.0195C24.0399 91.9675 24.2064 91.8609 24.3317 91.7136L35.1526 79.2055C35.6076 78.6816 36.2512 78.3587 36.9431 78.307L127.648 71.7718C130.024 71.5881 132.232 70.4742 133.792 68.6721C135.352 66.8699 136.139 64.525 135.98 62.1467L132.101 8.35233C131.918 5.97581 130.804 3.76772 129.002 2.20763C127.2 0.647551 124.855 -0.138542 122.476 0.0200765Z" fill="#407BFF"/>
<path id="Vector_4" d="M25.0166 32.9415L31.1834 32.4955L31.6876 39.4768L38.4232 38.992L37.919 32.0107L44.1116 31.5582L45.5531 51.5065L39.3605 51.9525L38.7787 43.8853L32.0431 44.3766L32.6249 52.4438L26.4646 52.8898L25.0166 32.9415Z" fill="white"/>
<path id="Vector_5" opacity="0.2" d="M8.3459 8.24881C5.97054 8.43413 3.76409 9.54871 2.20537 11.3507C0.646652 13.1526 -0.138572 15.4966 0.0201096 17.8739L3.89858 71.6683C4.08224 74.0472 5.19795 76.2573 7.00293 77.8178C8.80791 79.3782 11.1561 80.1627 13.5366 80.0005L14.4868 79.9294C16.0656 79.8153 17.5626 79.1832 18.7455 78.1313C19.9283 77.0794 20.7308 75.6664 21.0285 74.1117L34.0278 6.39362L8.3459 8.24881Z" fill="black"/>
<path id="Vector_6" d="M64.9 44.2282L53.7946 45.0297C53.8798 45.7491 54.1819 46.4255 54.6608 46.969C54.9355 47.258 55.2733 47.4796 55.6479 47.6164C56.0224 47.7532 56.4235 47.8015 56.8198 47.7576C57.3642 47.7187 57.8895 47.5406 58.3454 47.2405C58.7021 46.9703 59.0066 46.6374 59.2439 46.2579L64.7384 46.3678C64.1405 47.7225 63.1698 48.8793 61.9394 49.7033C60.8104 50.4187 59.1426 50.8496 56.9362 50.9961C55.3936 51.1757 53.8303 51.0101 52.3596 50.5113C51.1805 50.0163 50.1686 49.1928 49.4443 48.139C48.6139 46.9392 48.1368 45.5305 48.0674 44.073C47.952 43.0609 48.0501 42.0358 48.3551 41.0638C48.6602 40.0918 49.1655 39.1946 49.8386 38.4299C51.1831 36.9302 53.1224 36.0877 55.6563 35.9024C57.3338 35.7031 59.0347 35.9024 60.6207 36.4842C61.8351 37.003 62.8583 37.8861 63.549 39.0116C64.3397 40.4095 64.7831 41.9768 64.8418 43.5818L64.9 44.2282ZM59.0823 41.9787C59.0036 41.138 58.6412 40.3492 58.0545 39.7421C57.759 39.5147 57.4199 39.3504 57.0583 39.2595C56.6967 39.1685 56.3202 39.1529 55.9523 39.2135C55.5844 39.2741 55.2328 39.4097 54.9195 39.6118C54.6061 39.8139 54.3377 40.0783 54.1308 40.3885C53.7857 40.9967 53.6115 41.6868 53.6266 42.3859L59.0823 41.9787Z" fill="white"/>
<path id="Vector_7" d="M66.6143 29.9363L72.1669 29.5355L73.6084 49.4773L68.0558 49.8781L66.6143 29.9363Z" fill="white"/>
<path id="Vector_8" d="M75.8906 29.2637L81.4433 28.863L82.8848 48.8048L77.3386 49.2056L75.8906 29.2637Z" fill="white"/>
<path id="Vector_9" d="M85.2232 41.4162C85.1183 40.4045 85.2275 39.382 85.5438 38.4153C85.8601 37.4486 86.3764 36.5593 87.059 35.8053C88.4424 34.2669 90.401 33.405 92.9349 33.2197C95.8222 33.0128 98.0674 33.6937 99.6705 35.2623C101.002 36.6666 101.771 38.511 101.832 40.4452C101.893 42.3794 101.241 44.2686 100 45.7536C98.6298 47.2791 96.6432 48.141 94.0403 48.3393C92.0183 48.5818 89.9757 48.1009 88.2743 46.9818C87.3694 46.3538 86.6228 45.5242 86.0933 44.5583C85.5638 43.5925 85.266 42.5168 85.2232 41.4162ZM90.7759 41.0025C90.7656 42.0228 91.1158 43.0141 91.7649 43.8014C92.0267 44.0695 92.3437 44.2774 92.6939 44.4109C93.044 44.5443 93.419 44.6 93.7928 44.5742C94.1666 44.5484 94.5303 44.4416 94.8588 44.2613C95.1873 44.081 95.4726 43.8315 95.6951 43.53C96.2175 42.6301 96.4138 41.5777 96.251 40.55C96.2574 39.5502 95.9119 38.5799 95.2749 37.8092C95.026 37.5361 94.7175 37.3241 94.3733 37.1896C94.0291 37.055 93.6586 37.0016 93.2905 37.0335C92.9065 37.0514 92.5318 37.1575 92.1955 37.3436C91.8592 37.5296 91.5703 37.7907 91.3512 38.1066C90.8304 38.9761 90.6356 40.0026 90.8018 41.0025H90.7759Z" fill="white"/>
<path id="Vector_10" d="M103.579 27.2599L109.494 26.8333L109.823 31.3581L109.339 40.5695L105.68 40.8345L103.902 31.7848L103.579 27.2599ZM104.872 42.3084L110.392 41.9076L110.748 46.7945L105.221 47.1888L104.872 42.3084Z" fill="white"/>
</g>
</svg>
